<svg xmlns="http://www.w3.org/2000/svg" width="320" height="58" viewBox="0 0 320 58">
  <g fill="none" fill-rule="evenodd">
    <g fill-rule="nonzero">
      <path fill="#02BAF2" d="M4.66242296,1.40635276 L1.40635276,4.66242296 C-0.468636437,6.53696882 -0.468636437,9.5771204 1.40635276,11.4516663 L6.05990843,16.1056654 L16.1056654,6.05990843 L11.4516663,1.40635276 C9.5771204,-0.468636437 6.53696882,-0.468636437 4.66242296,1.40635276 Z"/>
      <path fill="#E1EEF3" fill-opacity=".5" d="M7.08319411,0.100200361 C6.19602141,0.283310058 5.35052494,0.717807443 4.66242296,1.40635276 L1.40635276,4.66242296 C-0.468636437,6.53696882 -0.468636437,9.5771204 1.40635276,11.4516663 L6.05990843,16.1056654 L9.86486405,12.3007096 C7.30265965,10.0377763 5.71940436,4.50325501 7.08319411,0.100200361 Z"/>
      <path fill="#A88CD5" d="M56.4101748,46.295253 L46.295253,56.4101748 C44.1906009,58.5143835 40.836547,58.6895126 38.5244003,56.8158535 L15.5550064,38.1994141 L38.1994141,15.5550064 L56.8154101,38.5244003 C58.6895126,40.836547 58.5143835,44.1906009 56.4101748,46.295253 Z"/>
      <path fill="#A3DEFE" d="M34.918072,10.2177824 L10.2177824,34.918072 C9.02779153,36.1080628 9.02779153,38.0371425 10.2177824,39.2271333 C11.4077731,40.4171241 13.3368529,40.4171241 14.5268437,39.2271333 L39.2271333,14.5268437 C40.4171241,13.3368529 40.4171241,11.4077731 39.2271333,10.2177824 C38.0375859,9.02779153 36.1080628,9.02779153 34.918072,10.2177824 L34.918072,10.2177824 Z"/>
      <path fill="#009DCD" d="M34.918072,10.2177824 L10.2177824,34.918072 C9.02779153,36.1080628 9.02779153,38.0371425 10.2177824,39.2271333 C11.4077731,40.4171241 13.3368529,40.4171241 14.5268437,39.2271333 L39.2271333,14.5268437 C40.4171241,13.3368529 40.4171241,11.4077731 39.2271333,10.2177824 C38.0375859,9.02779153 36.1080628,9.02779153 34.918072,10.2177824 L34.918072,10.2177824 Z"/>
      <path fill="#9175BD" d="M22.649728.00532037615L.00532037615 22.649728 17.0713136 36.4813759C12.9812745 31.1822813 10.3445847 25.0576415 8.75467889 18.8416687L24.8616744 2.73467334 22.649728.00532037615zM32.229952 32.5615887C31.7599853 32.5615887 31.3786918 32.1802952 31.3786918 31.7103285L31.3786918 28.8244678C31.3786918 28.3540579 31.7599853 27.9732077 32.229952 27.9732077 32.7003619 27.9732077 33.0812122 28.3540579 33.0812122 28.8244678L33.0812122 31.7103285C33.0812122 32.1802952 32.6999185 32.5615887 32.229952 32.5615887L32.229952 32.5615887zM36.012296 27.978528C35.5418861 27.978528 35.1610358 27.5976779 35.1610358 27.1272678L35.1610358 24.8865028C35.1610358 24.4165363 35.5418861 24.0352426 36.012296 24.0352426 36.4822626 24.0352426 36.8635562 24.4165363 36.8635562 24.8865028L36.8635562 27.1272678C36.8635562 27.5976779 36.4822626 27.978528 36.012296 27.978528z" transform="translate(15.55 15.55)"/>
      <path fill="#A88CD5" d="M12.9245238,6.03552334 L6.03552334,12.9245238 C3.52918284,15.4308643 2.47840861,19.0447298 3.25030649,22.5043044 C4.00047953,25.8650086 5.69147235,28.9424029 8.12598783,31.3769183 L10.9426836,34.1936142 L34.1936142,10.9426836 L31.3769183,8.12598783 C28.9424029,5.69147235 25.8650086,4.00003619 22.5043044,3.25030649 C19.0447298,2.47840861 15.4308643,3.52918284 12.9245238,6.03552334 Z"/>
      <path fill="#9175BD" d="M18.05647,3.23744894 C16.1415779,3.65199483 14.3530447,4.60700241 12.9245238,6.03552334 L6.03552334,12.9245238 C3.52918284,15.4308643 2.47840861,19.0447298 3.25030649,22.5043044 C4.00047953,25.8650086 5.69147235,28.9424029 8.12598783,31.3769183 L10.9426836,34.1936142 L17.9318844,27.20397 C15.0668619,21.7372835 14.699756,10.1246758 18.05647,3.23744894 Z"/>
      <path fill="#02BAF2" d="M14.4674329 48.1307829C7.21487339 48.1307829 1.31457624 42.2304856 1.31457624 34.9779262 1.31457624 34.5075163 1.69542653 34.1266661 2.16583643 34.1266661 2.63580299 34.1266661 3.01709661 34.5075163 3.01709661 34.9779262 3.01709661 41.2914393 8.1534765 46.4282625 14.4674329 46.4282625 14.9378428 46.4282625 15.318693 46.8091127 15.318693 47.2795227 15.318693 47.7494891 14.9373994 48.1307829 14.4674329 48.1307829zM47.2795227 15.318693C46.8091127 15.318693 46.4282625 14.9378428 46.4282625 14.4674329 46.4282625 8.1534765 41.2914393 3.01709661 34.9779262 3.01709661 34.5075163 3.01709661 34.1266661 2.63580299 34.1266661 2.16583643 34.1266661 1.69542653 34.5075163 1.31457624 34.9779262 1.31457624 42.2304856 1.31457624 48.1307829 7.21487339 48.1307829 14.4674329 48.1307829 14.9373994 47.7494891 15.318693 47.2795227 15.318693z"/>
      <polygon fill="#F279B6" points="47.61 27.166 43.894 22.582 22.582 43.894 27.166 47.61"/>
      <path fill="#C69" d="M22.5818932,43.8944333 L27.1658406,47.6098293 L28.7513127,46.0243572 C27.7603926,44.1688761 26.9029254,42.2562008 26.1664966,40.3102733 L22.5818932,43.8944333 Z"/>
      <path fill="#02BAF2" d="M19.8933297,25.2425247 L10.2177824,34.918072 C9.02779153,36.1080628 9.02779153,38.0375859 10.2177824,39.2275767 C11.4077731,40.4171241 13.3368529,40.4171241 14.5268437,39.2275767 L21.4628407,32.2915796 C19.5590328,30.3208237 19.2916839,27.5998946 19.8933297,25.2425247 Z"/>
    </g>
    <text font-family="Comfortaa-Bold, Comfortaa" font-size="43.449" font-weight="bold">
      <tspan x="68.866" y="48" fill="#A88CD5">Shake</tspan> <tspan x="209.466" y="48" fill="#C69">.sass</tspan>
    </text>
  </g>
</svg>
