<svg xmlns="http://www.w3.org/2000/svg" width="320" height="58" viewBox="0 0 320 58">
  <g fill="none" fill-rule="evenodd">
    <g fill-rule="nonzero">
      <path fill="#02BAF2" d="M4.66242296,1.40635276 L1.40635276,4.66242296 C-0.468636437,6.53696882 -0.468636437,9.5771204 1.40635276,11.4516663 L6.05990843,16.1056654 L16.1056654,6.05990843 L11.4516663,1.40635276 C9.5771204,-0.468636437 6.53696882,-0.468636437 4.66242296,1.40635276 Z"/>
      <path fill="#E1EEF3" fill-opacity=".5" d="M7.08319411,0.100200361 C6.19602141,0.283310058 5.35052494,0.717807443 4.66242296,1.40635276 L1.40635276,4.66242296 C-0.468636437,6.53696882 -0.468636437,9.5771204 1.40635276,11.4516663 L6.05990843,16.1056654 L9.86486405,12.3007096 C7.30265965,10.0377763 5.71940436,4.50325501 7.08319411,0.100200361 Z"/>
      <path fill="#A88CD5" d="M56.4101748,46.295253 L46.295253,56.4101748 C44.1906009,58.5143835 40.836547,58.6895126 38.5244003,56.8158535 L15.5550064,38.1994141 L38.1994141,15.5550064 L56.8154101,38.5244003 C58.6895126,40.836547 58.5143835,44.1906009 56.4101748,46.295253 Z"/>
      <path fill="#A3DEFE" d="M34.918072,10.2177824 L10.2177824,34.918072 C9.02779153,36.1080628 9.02779153,38.0371425 10.2177824,39.2271333 C11.4077731,40.4171241 13.3368529,40.4171241 14.5268437,39.2271333 L39.2271333,14.5268437 C40.4171241,13.3368529 40.4171241,11.4077731 39.2271333,10.2177824 C38.0375859,9.02779153 36.1080628,9.02779153 34.918072,10.2177824 L34.918072,10.2177824 Z"/>
      <path fill="#009DCD" d="M34.918072,10.2177824 L10.2177824,34.918072 C9.02779153,36.1080628 9.02779153,38.0371425 10.2177824,39.2271333 C11.4077731,40.4171241 13.3368529,40.4171241 14.5268437,39.2271333 L39.2271333,14.5268437 C40.4171241,13.3368529 40.4171241,11.4077731 39.2271333,10.2177824 C38.0375859,9.02779153 36.1080628,9.02779153 34.918072,10.2177824 L34.918072,10.2177824 Z"/>
      <path fill="#9175BD" d="M22.649728.00532037615L.00532037615 22.649728 17.0713136 36.4813759C12.9812745 31.1822813 10.3445847 25.0576415 8.75467889 18.8416687L24.8616744 2.73467334 22.649728.00532037615zM32.229952 32.5615887C31.7599853 32.5615887 31.3786918 32.1802952 31.3786918 31.7103285L31.3786918 28.8244678C31.3786918 28.3540579 31.7599853 27.9732077 32.229952 27.9732077 32.7003619 27.9732077 33.0812122 28.3540579 33.0812122 28.8244678L33.0812122 31.7103285C33.0812122 32.1802952 32.6999185 32.5615887 32.229952 32.5615887L32.229952 32.5615887zM36.012296 27.978528C35.5418861 27.978528 35.1610358 27.5976779 35.1610358 27.1272678L35.1610358 24.8865028C35.1610358 24.4165363 35.5418861 24.0352426 36.012296 24.0352426 36.4822626 24.0352426 36.8635562 24.4165363 36.8635562 24.8865028L36.8635562 27.1272678C36.8635562 27.5976779 36.4822626 27.978528 36.012296 27.978528z" transform="translate(15.55 15.55)"/>
      <path fill="#A88CD5" d="M12.9245238,6.03552334 L6.03552334,12.9245238 C3.52918284,15.4308643 2.47840861,19.0447298 3.25030649,22.5043044 C4.00047953,25.8650086 5.69147235,28.9424029 8.12598783,31.3769183 L10.9426836,34.1936142 L34.1936142,10.9426836 L31.3769183,8.12598783 C28.9424029,5.69147235 25.8650086,4.00003619 22.5043044,3.25030649 C19.0447298,2.47840861 15.4308643,3.52918284 12.9245238,6.03552334 Z"/>
      <path fill="#9175BD" d="M18.05647,3.23744894 C16.1415779,3.65199483 14.3530447,4.60700241 12.9245238,6.03552334 L6.03552334,12.9245238 C3.52918284,15.4308643 2.47840861,19.0447298 3.25030649,22.5043044 C4.00047953,25.8650086 5.69147235,28.9424029 8.12598783,31.3769183 L10.9426836,34.1936142 L17.9318844,27.20397 C15.0668619,21.7372835 14.699756,10.1246758 18.05647,3.23744894 Z"/>
      <path fill="#02BAF2" d="M14.4674329 48.1307829C7.21487339 48.1307829 1.31457624 42.2304856 1.31457624 34.9779262 1.31457624 34.5075163 1.69542653 34.1266661 2.16583643 34.1266661 2.63580299 34.1266661 3.01709661 34.5075163 3.01709661 34.9779262 3.01709661 41.2914393 8.1534765 46.4282625 14.4674329 46.4282625 14.9378428 46.4282625 15.318693 46.8091127 15.318693 47.2795227 15.318693 47.7494891 14.9373994 48.1307829 14.4674329 48.1307829zM47.2795227 15.318693C46.8091127 15.318693 46.4282625 14.9378428 46.4282625 14.4674329 46.4282625 8.1534765 41.2914393 3.01709661 34.9779262 3.01709661 34.5075163 3.01709661 34.1266661 2.63580299 34.1266661 2.16583643 34.1266661 1.69542653 34.5075163 1.31457624 34.9779262 1.31457624 42.2304856 1.31457624 48.1307829 7.21487339 48.1307829 14.4674329 48.1307829 14.9373994 47.7494891 15.318693 47.2795227 15.318693z"/>
      <polygon fill="#F279B6" points="47.61 27.166 43.894 22.582 22.582 43.894 27.166 47.61"/>
      <path fill="#C69" d="M22.5818932,43.8944333 L27.1658406,47.6098293 L28.7513127,46.0243572 C27.7603926,44.1688761 26.9029254,42.2562008 26.1664966,40.3102733 L22.5818932,43.8944333 Z"/>
      <path fill="#02BAF2" d="M19.8933297,25.2425247 L10.2177824,34.918072 C9.02779153,36.1080628 9.02779153,38.0375859 10.2177824,39.2275767 C11.4077731,40.4171241 13.3368529,40.4171241 14.5268437,39.2275767 L21.4628407,32.2915796 C19.5590328,30.3208237 19.2916839,27.5998946 19.8933297,25.2425247 Z"/>
    </g>
    <g fill-rule="nonzero" transform="translate(71.343 13.675)">
      <path fill="#A88CD5" d="M13.2518669,0 C15.7429407,0 17.8429423,0.506896945 19.5519348,1.52070604 C21.2609273,2.53451514 22.7092043,3.98279212 23.8968092,5.86558045 C24.2444009,6.41593396 24.4181942,6.93731367 24.4181942,7.42973523 C24.4181942,8.06698667 24.1285388,8.58836638 23.5492193,8.99389002 C23.2305936,9.19665184 22.8540415,9.29803123 22.4195519,9.29803123 C21.9850623,9.29803123 21.5795448,9.18941045 21.2029871,8.97216565 C20.8264294,8.75492084 20.536774,8.45802406 20.3340122,8.0814664 C19.5519309,6.77799756 18.574344,5.78592782 17.401222,5.10522743 C16.2281,4.42452703 14.7436161,4.08418194 12.9477257,4.08418194 C10.7463117,4.08418194 8.964931,4.51142365 7.60353021,5.36591989 C6.24212942,6.22041613 5.56143924,7.45869295 5.56143924,9.08078751 C5.56143924,10.5870182 6.16971557,11.8470191 7.38628649,12.8608282 C8.60285741,13.8746373 10.7752729,14.5408448 13.9035981,14.8594705 C17.379515,15.2070622 20.0733102,16.257063 21.9850645,18.0095044 C23.8968188,19.7619459 24.8526816,22.0719476 24.8526816,24.9395791 C24.8526816,27.0251292 24.2878536,28.8137513 23.1581806,30.305499 C22.0285076,31.7972467 20.5295409,32.9124199 18.6612356,33.6510523 C16.7929302,34.3896846 14.7870666,34.7589952 12.6435845,34.7589952 C9.83388502,34.7589952 7.27767614,34.1217534 4.97488119,32.8472505 C2.67208625,31.5727476 1.08622295,29.9072291 0.21724372,27.8506449 C0.0724138493,27.5030533 -1.42108547e-13,27.2133979 -1.42108547e-13,26.9816701 C-1.42108547e-13,26.5471804 0.159310468,26.163387 0.477936185,25.8302783 C0.796561901,25.4971696 1.231045,25.2726867 1.78139851,25.1568228 C1.86829643,25.1278568 2.01312413,25.1133741 2.21588595,25.1133741 C2.67934153,25.1133741 3.12106601,25.2509604 3.54107264,25.5261371 C3.96107927,25.8013139 4.27245882,26.1706245 4.47522064,26.6340801 C4.99660817,27.7637531 6.02488483,28.7196159 7.56008147,29.5016972 C9.0952781,30.2837785 10.7897622,30.6748133 12.6435845,30.6748133 C14.8160326,30.6748133 16.6553444,30.1751577 18.161575,29.1758316 C19.6678057,28.1765055 20.4209097,26.8078838 20.4209097,25.0699253 C20.4209097,23.4188648 19.7836678,22.0067947 18.509165,20.8336728 C17.2346621,19.6605508 15.2939709,18.9436537 12.6870333,18.6829599 C9.09525246,18.3353683 6.27111234,17.2853674 4.21452817,15.532926 C2.15794401,13.7804846 1.12966735,11.5863449 1.12966735,8.95044128 C1.12966735,7.09661893 1.65828845,5.49627286 2.7155465,4.14935506 C3.77280456,2.80243726 5.22108155,1.7741606 7.06042091,1.06449423 C8.89976027,0.354827862 10.963555,0 13.2518669,0 Z M43.1446029,10.3408011 C45.1432551,10.3408011 46.9391185,10.7752842 48.5322471,11.6442634 C50.1253757,12.5132426 51.3708939,13.780485 52.2688391,15.4460285 C53.1667843,17.111572 53.6157502,19.1174357 53.6157502,21.4636796 L53.6157502,32.1520706 C53.6157502,32.789322 53.40575,33.3179431 52.9857434,33.7379498 C52.5657368,34.1579564 52.0371157,34.3679566 51.3998642,34.3679566 C50.7626128,34.3679566 50.2339917,34.1579564 49.8139851,33.7379498 C49.3939784,33.3179431 49.1839783,32.789322 49.1839783,32.1520706 L49.1839783,21.4636796 C49.1839783,19.1174357 48.5539778,17.3432963 47.2939579,16.1412084 C46.033938,14.9391205 44.3611781,14.3380855 42.275628,14.3380855 C41.0590571,14.3380855 39.9511252,14.5842926 38.951799,15.0767142 C37.9524729,15.5691358 37.1704034,16.2353432 36.6055669,17.0753564 C36.0407304,17.9153697 35.7583164,18.8567497 35.7583164,19.8995248 L35.7583164,32.1520706 C35.7583164,32.789322 35.5555576,33.3179431 35.1500339,33.7379498 C34.7445103,34.1579564 34.2086478,34.3679566 33.5424304,34.3679566 C32.905179,34.3679566 32.3765579,34.1579564 31.9565513,33.7379498 C31.5365446,33.3179431 31.3265445,32.789322 31.3265445,32.1520706 L31.3265445,2.60692464 C31.3265445,1.94070724 31.5365446,1.40484475 31.9565513,0.999321113 C32.3765579,0.593797475 32.905179,0.391038697 33.5424304,0.391038697 C34.2086478,0.391038697 34.7445103,0.593797475 35.1500339,0.999321113 C35.5555576,1.40484475 35.7583164,1.94070724 35.7583164,2.60692464 L35.7583164,13.2518669 C36.6852275,12.3249558 37.785918,11.6080587 39.0604209,11.1011541 C40.3349238,10.5942496 41.6963041,10.3408011 43.1446029,10.3408011 Z M71.7773252,10.3842498 C74.0077052,10.3842498 76.0280516,10.9128709 77.838425,11.970129 C79.6487984,13.027387 81.0825926,14.475664 82.1398506,16.3150034 C83.1971087,18.1543428 83.7257298,20.2036547 83.7257298,22.4630007 L83.7257298,32.1520706 C83.7257298,32.789322 83.5157296,33.3179431 83.095723,33.7379498 C82.6757164,34.1579564 82.1470953,34.3679566 81.5098439,34.3679566 C80.8725924,34.3679566 80.3439713,34.1579564 79.9239647,33.7379498 C79.5039581,33.3179431 79.2939579,32.789322 79.2939579,32.1520706 L79.2939579,30.5444671 C78.2801488,31.790004 77.0491134,32.7603495 75.6008147,33.4555329 C74.152516,34.1507163 72.5883768,34.4983028 70.9083503,34.4983028 C68.8228002,34.4983028 66.9327987,33.9769231 65.2382892,32.934148 C63.5437797,31.8913729 62.2113649,30.4503373 61.2410048,28.610998 C60.2706446,26.7716586 59.7854718,24.7223467 59.7854718,22.4630007 C59.7854718,20.2036547 60.3068515,18.1543428 61.3496266,16.3150034 C62.3924017,14.475664 63.8334373,13.027387 65.6727766,11.970129 C67.512116,10.9128709 69.5469452,10.3842498 71.7773252,10.3842498 Z M71.7773252,30.5879158 C73.2256239,30.5879158 74.5363146,30.233088 75.7094365,29.5234216 C76.8825585,28.8137552 77.8022144,27.8434096 78.4684318,26.6123557 C79.1346492,25.3813018 79.4677529,23.9981973 79.4677529,22.4630007 C79.4677529,20.927804 79.1346492,19.5374581 78.4684318,18.2919212 C77.8022144,17.0463844 76.8825585,16.0687974 75.7094365,15.359131 C74.5363146,14.6494647 73.2256239,14.2946368 71.7773252,14.2946368 C70.3290265,14.2946368 69.0183358,14.6494647 67.8452138,15.359131 C66.6720919,16.0687974 65.7451946,17.0463844 65.0644942,18.2919212 C64.3837938,19.5374581 64.0434487,20.927804 64.0434487,22.4630007 C64.0434487,23.9981973 64.3837938,25.3813018 65.0644942,26.6123557 C65.7451946,27.8434096 66.6720919,28.8137552 67.8452138,29.5234216 C69.0183358,30.233088 70.3290265,30.5879158 71.7773252,30.5879158 Z M108.27427,31.1961982 C108.592896,31.5437899 108.752206,31.978273 108.752206,32.4996606 C108.752206,33.136912 108.491517,33.6727745 107.970129,34.1072641 C107.535639,34.4548558 107.072191,34.628649 106.579769,34.628649 C105.942518,34.628649 105.421138,34.3679592 105.015614,33.8465716 L96.760353,23.6361168 L94.5879158,25.5478615 L94.5879158,32.1955193 C94.5879158,32.8327708 94.3923984,33.3469091 94.0013578,33.7379498 C93.6103171,34.1289904 93.0961788,34.3245078 92.4589274,34.3245078 C91.8216759,34.3245078 91.3075376,34.1289904 90.9164969,33.7379498 C90.5254563,33.3469091 90.3299389,32.8327708 90.3299389,32.1955193 L90.3299389,2.52002716 C90.3299389,1.88277572 90.5254563,1.36863739 90.9164969,0.977596741 C91.3075376,0.58655609 91.8216759,0.391038697 92.4589274,0.391038697 C93.0961788,0.391038697 93.6103171,0.58655609 94.0013578,0.977596741 C94.3923984,1.36863739 94.5879158,1.88277572 94.5879158,2.52002716 L94.5879158,20.203666 L105.145961,10.7752885 C105.522518,10.3987309 105.971484,10.2104549 106.492872,10.2104549 C107.101157,10.2104549 107.593571,10.4421792 107.970129,10.9056348 C108.346687,11.2821924 108.534963,11.7311583 108.534963,12.2525458 C108.534963,12.8608313 108.303238,13.3532455 107.839783,13.7298031 L99.8452138,20.8553971 L108.27427,31.1961982 Z M136.385608,22.071962 C136.385608,22.6223155 136.197332,23.0785227 135.820774,23.4405974 C135.444216,23.8026721 134.966285,23.9837067 134.386965,23.9837067 L117.876443,23.9837067 C118.195068,26.0113249 119.114724,27.6478779 120.635438,28.8934148 C122.156152,30.1389517 124.017187,30.7617108 126.218601,30.7617108 C127.087581,30.7617108 127.992754,30.6024003 128.934148,30.2837746 C129.875542,29.9651489 130.65037,29.5741141 131.258656,29.1106585 C131.664179,28.7920328 132.142111,28.6327223 132.692464,28.6327223 C133.242818,28.6327223 133.677301,28.77755 133.995927,29.0672098 C134.517314,29.5016994 134.778004,29.9941136 134.778004,30.5444671 C134.778004,31.0658546 134.54628,31.5003377 134.082824,31.8479294 C133.097981,32.6300107 131.874187,33.2672526 130.411405,33.7596741 C128.948624,34.2520957 127.551036,34.4983028 126.218601,34.4983028 C123.843392,34.4983028 121.714424,33.9841645 119.831636,32.9558724 C117.948848,31.9275803 116.478847,30.5010275 115.421589,28.6761711 C114.364331,26.8513147 113.835709,24.7802786 113.835709,22.4630007 C113.835709,20.1457227 114.335365,18.0674453 115.334691,16.2281059 C116.334017,14.3887665 117.724363,12.9549723 119.505771,11.9266802 C121.287178,10.8983882 123.307524,10.3842498 125.56687,10.3842498 C127.79725,10.3842498 129.723459,10.876664 131.345553,11.8615071 C132.967648,12.8463503 134.213166,14.2222134 135.082145,15.9891378 C135.951125,17.7560622 136.385608,19.78365 136.385608,22.071962 Z M125.56687,14.1208418 C123.452354,14.1208418 121.736146,14.7001526 120.418194,15.8587916 C119.100242,17.0174305 118.267483,18.5670869 117.919891,20.5078072 L132.388323,20.5078072 C132.127629,18.5670869 131.403491,17.0174305 130.215886,15.8587916 C129.028281,14.7001526 127.478625,14.1208418 125.56687,14.1208418 Z"/>
      <path fill="#C69" d="M143.293958,28.9803123 C144.105005,28.9803123 144.80742,29.2772091 145.401222,29.8710115 C145.995024,30.464814 146.291921,31.1817111 146.291921,32.0217244 C146.291921,32.8327716 146.002266,33.535186 145.422946,34.1289885 C144.843627,34.7227909 144.133971,35.0196877 143.293958,35.0196877 C142.482911,35.0196877 141.780496,34.7227909 141.186694,34.1289885 C140.592891,33.535186 140.295995,32.8327716 140.295995,32.0217244 C140.295995,31.1817111 140.592891,30.464814 141.186694,29.8710115 C141.780496,29.2772091 142.482911,28.9803123 143.293958,28.9803123 Z M160.716904,10.3842498 C162.599693,10.3842498 164.286935,10.688388 165.778683,11.2966735 C167.270431,11.9049589 168.450776,12.7449596 169.319756,13.8167006 C169.696313,14.2801562 169.884589,14.7436048 169.884589,15.2070604 C169.884589,15.699482 169.638382,16.1484478 169.145961,16.5539715 C168.827335,16.7856993 168.421817,16.9015614 167.929396,16.9015614 C167.17628,16.9015614 166.49559,16.6263888 165.887305,16.0760353 C165.163155,15.4098179 164.395569,14.9391279 163.584521,14.6639511 C162.773474,14.3887744 161.788646,14.2511881 160.630007,14.2511881 C159.297572,14.2511881 158.204123,14.475671 157.349627,14.9246436 C156.49513,15.3736162 156.067889,16.0036167 156.067889,16.814664 C156.067889,17.3939834 156.212716,17.8791562 156.502376,18.2701969 C156.792036,18.6612375 157.342381,19.0233068 158.153428,19.3564155 C158.964476,19.6895242 160.13758,20.0153865 161.672777,20.3340122 C164.830068,20.9712637 167.067656,21.8547126 168.385608,22.9843856 C169.703559,24.1140586 170.362525,25.5768184 170.362525,27.3727088 C170.362525,28.7051436 170.000456,29.9144549 169.276307,31.0006789 C168.552158,32.0869029 167.487674,32.9413863 166.082824,33.5641548 C164.677974,34.1869232 162.990732,34.4983028 161.021045,34.4983028 C159.051359,34.4983028 157.197565,34.1941646 155.459606,33.5858792 C153.721648,32.9775937 152.360267,32.1810414 151.375424,31.1961982 C150.998867,30.8196406 150.810591,30.3706747 150.810591,29.8492872 C150.810591,29.1541038 151.100246,28.5892758 151.679566,28.1547862 C152.229919,27.7492625 152.736816,27.5465037 153.200272,27.5465037 C153.779591,27.5465037 154.329936,27.8071936 154.851324,28.3285811 C155.401677,28.9368666 156.227195,29.4654877 157.327902,29.9144603 C158.428609,30.3634329 159.601714,30.5879158 160.847251,30.5879158 C162.498311,30.5879158 163.780036,30.3127432 164.692464,29.7623897 C165.604893,29.2120362 166.0611,28.4734149 166.0611,27.5465037 C166.0611,26.6485585 165.612134,25.9026959 164.714189,25.3088934 C163.816244,24.7150909 162.295553,24.2154354 160.152071,23.8099117 C154.590604,22.7381707 151.809912,20.4498931 151.809912,16.9450102 C151.809912,15.5256774 152.229912,14.3236075 153.069925,13.3387644 C153.909939,12.3539213 155.010629,11.6153 156.37203,11.1228785 C157.733431,10.6304569 159.181708,10.3842498 160.716904,10.3842498 Z M186.742702,10.3842498 C188.973082,10.3842498 190.993428,10.9128709 192.803802,11.970129 C194.614175,13.027387 196.047969,14.475664 197.105227,16.3150034 C198.162485,18.1543428 198.691107,20.2036547 198.691107,22.4630007 L198.691107,32.1520706 C198.691107,32.789322 198.481106,33.3179431 198.0611,33.7379498 C197.641093,34.1579564 197.112472,34.3679566 196.475221,34.3679566 C195.837969,34.3679566 195.309348,34.1579564 194.889341,33.7379498 C194.469335,33.3179431 194.259335,32.789322 194.259335,32.1520706 L194.259335,30.5444671 C193.245526,31.790004 192.01449,32.7603495 190.566191,33.4555329 C189.117893,34.1507163 187.553754,34.4983028 185.873727,34.4983028 C183.788177,34.4983028 181.898175,33.9769231 180.203666,32.934148 C178.509156,31.8913729 177.176742,30.4503373 176.206382,28.610998 C175.236021,26.7716586 174.750849,24.7223467 174.750849,22.4630007 C174.750849,20.2036547 175.272228,18.1543428 176.315003,16.3150034 C177.357778,14.475664 178.798814,13.027387 180.638153,11.970129 C182.477493,10.9128709 184.512322,10.3842498 186.742702,10.3842498 Z M186.742702,30.5879158 C188.191001,30.5879158 189.501691,30.233088 190.674813,29.5234216 C191.847935,28.8137552 192.767591,27.8434096 193.433809,26.6123557 C194.100026,25.3813018 194.43313,23.9981973 194.43313,22.4630007 C194.43313,20.927804 194.100026,19.5374581 193.433809,18.2919212 C192.767591,17.0463844 191.847935,16.0687974 190.674813,15.359131 C189.501691,14.6494647 188.191001,14.2946368 186.742702,14.2946368 C185.294403,14.2946368 183.983713,14.6494647 182.810591,15.359131 C181.637469,16.0687974 180.710571,17.0463844 180.029871,18.2919212 C179.349171,19.5374581 179.008826,20.927804 179.008826,22.4630007 C179.008826,23.9981973 179.349171,25.3813018 180.029871,26.6123557 C180.710571,27.8434096 181.637469,28.8137552 182.810591,29.5234216 C183.983713,30.233088 185.294403,30.5879158 186.742702,30.5879158 Z M213.637475,10.3842498 C215.520263,10.3842498 217.207506,10.688388 218.699253,11.2966735 C220.191001,11.9049589 221.371347,12.7449596 222.240326,13.8167006 C222.616884,14.2801562 222.80516,14.7436048 222.80516,15.2070604 C222.80516,15.699482 222.558952,16.1484478 222.066531,16.5539715 C221.747905,16.7856993 221.342388,16.9015614 220.849966,16.9015614 C220.096851,16.9015614 219.416161,16.6263888 218.807875,16.0760353 C218.083726,15.4098179 217.316139,14.9391279 216.505092,14.6639511 C215.694044,14.3887744 214.709216,14.2511881 213.550577,14.2511881 C212.218142,14.2511881 211.124693,14.475671 210.270197,14.9246436 C209.415701,15.3736162 208.988459,16.0036167 208.988459,16.814664 C208.988459,17.3939834 209.133287,17.8791562 209.422946,18.2701969 C209.712606,18.6612375 210.262951,19.0233068 211.073999,19.3564155 C211.885046,19.6895242 213.05815,20.0153865 214.593347,20.3340122 C217.750638,20.9712637 219.988226,21.8547126 221.306178,22.9843856 C222.62413,24.1140586 223.283096,25.5768184 223.283096,27.3727088 C223.283096,28.7051436 222.921026,29.9144549 222.196877,31.0006789 C221.472728,32.0869029 220.408244,32.9413863 219.003394,33.5641548 C217.598545,34.1869232 215.911302,34.4983028 213.941616,34.4983028 C211.97193,34.4983028 210.118135,34.1941646 208.380177,33.5858792 C206.642218,32.9775937 205.280838,32.1810414 204.295995,31.1961982 C203.919437,30.8196406 203.731161,30.3706747 203.731161,29.8492872 C203.731161,29.1541038 204.020816,28.5892758 204.600136,28.1547862 C205.150489,27.7492625 205.657386,27.5465037 206.120842,27.5465037 C206.700161,27.5465037 207.250507,27.8071936 207.771894,28.3285811 C208.322248,28.9368666 209.147765,29.4654877 210.248473,29.9144603 C211.34918,30.3634329 212.522284,30.5879158 213.767821,30.5879158 C215.418881,30.5879158 216.700606,30.3127432 217.613035,29.7623897 C218.525463,29.2120362 218.98167,28.4734149 218.98167,27.5465037 C218.98167,26.6485585 218.532704,25.9026959 217.634759,25.3088934 C216.736814,24.7150909 215.216123,24.2154354 213.072641,23.8099117 C207.511174,22.7381707 204.730482,20.4498931 204.730482,16.9450102 C204.730482,15.5256774 205.150482,14.3236075 205.990496,13.3387644 C206.830509,12.3539213 207.931199,11.6153 209.2926,11.1228785 C210.654001,10.6304569 212.102278,10.3842498 213.637475,10.3842498 Z M237.230143,10.3842498 C239.112931,10.3842498 240.800174,10.688388 242.291921,11.2966735 C243.783669,11.9049589 244.964015,12.7449596 245.832994,13.8167006 C246.209552,14.2801562 246.397828,14.7436048 246.397828,15.2070604 C246.397828,15.699482 246.15162,16.1484478 245.659199,16.5539715 C245.340573,16.7856993 244.935056,16.9015614 244.442634,16.9015614 C243.689519,16.9015614 243.008829,16.6263888 242.400543,16.0760353 C241.676394,15.4098179 240.908807,14.9391279 240.09776,14.6639511 C239.286712,14.3887744 238.301884,14.2511881 237.143245,14.2511881 C235.81081,14.2511881 234.717361,14.475671 233.862865,14.9246436 C233.008369,15.3736162 232.581127,16.0036167 232.581127,16.814664 C232.581127,17.3939834 232.725955,17.8791562 233.015614,18.2701969 C233.305274,18.6612375 233.855619,19.0233068 234.666667,19.3564155 C235.477714,19.6895242 236.650818,20.0153865 238.186015,20.3340122 C241.343306,20.9712637 243.580894,21.8547126 244.898846,22.9843856 C246.216798,24.1140586 246.875764,25.5768184 246.875764,27.3727088 C246.875764,28.7051436 246.513695,29.9144549 245.789545,31.0006789 C245.065396,32.0869029 244.000912,32.9413863 242.596062,33.5641548 C241.191213,34.1869232 239.50397,34.4983028 237.534284,34.4983028 C235.564598,34.4983028 233.710803,34.1941646 231.972845,33.5858792 C230.234886,32.9775937 228.873506,32.1810414 227.888663,31.1961982 C227.512105,30.8196406 227.323829,30.3706747 227.323829,29.8492872 C227.323829,29.1541038 227.613484,28.5892758 228.192804,28.1547862 C228.743157,27.7492625 229.250054,27.5465037 229.71351,27.5465037 C230.292829,27.5465037 230.843175,27.8071936 231.364562,28.3285811 C231.914916,28.9368666 232.740434,29.4654877 233.841141,29.9144603 C234.941848,30.3634329 236.114952,30.5879158 237.360489,30.5879158 C239.011549,30.5879158 240.293274,30.3127432 241.205703,29.7623897 C242.118131,29.2120362 242.574338,28.4734149 242.574338,27.5465037 C242.574338,26.6485585 242.125372,25.9026959 241.227427,25.3088934 C240.329482,24.7150909 238.808791,24.2154354 236.665309,23.8099117 C231.103842,22.7381707 228.32315,20.4498931 228.32315,16.9450102 C228.32315,15.5256774 228.74315,14.3236075 229.583164,13.3387644 C230.423177,12.3539213 231.523867,11.6153 232.885268,11.1228785 C234.246669,10.6304569 235.694946,10.3842498 237.230143,10.3842498 Z"/>
    </g>
  </g>
</svg>
