<svg xmlns="http://www.w3.org/2000/svg" width="451" height="451" viewBox="0 0 451 451"><g fill="none"><path fill="#02BAF2" d="M36.133778,10.8992339 L10.8992339,36.133778 C-3.63193239,50.6615084 -3.63193239,74.2226831 10.8992339,88.7504135 L46.9642903,124.818907 L124.818907,46.9642903 L88.7504135,10.8992339 C74.2226831,-3.63193239 50.6615084,-3.63193239 36.133778,10.8992339 Z"/><path fill="#E1EEF3" fill-opacity=".5" d="M54.8947543,0.776552795 C48.019166,2.19565295 41.4665683,5.56300769 36.133778,10.8992339 L10.8992339,36.133778 C-3.63193239,50.6615084 -3.63193239,74.2226831 10.8992339,88.7504135 L46.9642903,124.818907 L76.4526964,95.3304998 C56.5956123,77.7927665 44.3253838,34.9002264 54.8947543,0.776552795 Z"/><path fill="#A88CD5" d="M437.178855,358.788211 L358.788211,437.178855 C342.477157,453.486472 316.48324,454.843723 298.564103,440.322865 L120.5513,296.045459 L296.045459,120.5513 L440.319428,298.564103 C454.843723,316.48324 453.486472,342.477157 437.178855,358.788211 Z"/><path fill="#A3DEFE" d="M270.615058,79.1878139 L79.1878139,270.615058 C69.9653844,279.837487 69.9653844,294.787855 79.1878139,304.010283 C88.4102417,313.232712 103.36061,313.232712 112.583038,304.010283 L304.010283,112.583038 C313.232712,103.36061 313.232712,88.4102417 304.010283,79.1878139 C294.79129,69.9653844 279.837487,69.9653844 270.615058,79.1878139 L270.615058,79.1878139 Z"/><path fill="#009DCD" d="M270.615058,79.1878139 L79.1878139,270.615058 C69.9653844,279.837487 69.9653844,294.787855 79.1878139,304.010283 C88.4102417,313.232712 103.36061,313.232712 112.583038,304.010283 L304.010283,112.583038 C313.232712,103.36061 313.232712,88.4102417 304.010283,79.1878139 C294.79129,69.9653844 279.837487,69.9653844 270.615058,79.1878139 L270.615058,79.1878139 Z"/><path fill="#9175BD" d="M175.535392.0412329151.0412329151 175.535392 132.30268 282.730663C100.604877 241.66268 80.1705313 194.196722 67.8487614 146.022933L192.677977 21.1937184 175.535392.0412329151ZM249.782128 252.352312C246.139886 252.352312 243.184862 249.397288 243.184862 245.755046L243.184862 223.389626C243.184862 219.743949 246.139886 216.792359 249.782128 216.792359 253.427805 216.792359 256.379395 219.743949 256.379395 223.389626L256.379395 245.755046C256.379395 249.397288 253.424368 252.352312 249.782128 252.352312L249.782128 252.352312ZM279.095294 216.833592C275.449617 216.833592 272.498028 213.882003 272.498028 210.236326L272.498028 192.870397C272.498028 189.228156 275.449617 186.27313 279.095294 186.27313 282.737535 186.27313 285.69256 189.228156 285.69256 192.870397L285.69256 210.236326C285.69256 213.882003 282.737535 216.833592 279.095294 216.833592Z" transform="translate(120.51 120.51)"/><path fill="#A88CD5" d="M100.165059,46.7753059 L46.7753059,100.165059 C27.351167,119.589198 19.2076667,147.596656 25.1898753,174.408359 C31.0037163,200.453816 44.1089107,224.303622 62.9764057,243.171117 L84.805798,265.00051 L265.00051,84.805798 L243.171117,62.9764057 C224.303622,44.1089107 200.453816,31.0002805 174.408359,25.1898753 C147.596656,19.2076667 119.589198,27.351167 100.165059,46.7753059 Z"/><path fill="#9175BD" d="M139.937642,25.0902293 C125.097229,28.3029599 111.236097,35.7042686 100.165059,46.7753059 L46.7753059,100.165059 C27.351167,119.589198 19.2076667,147.596656 25.1898753,174.408359 C31.0037163,200.453816 44.1089107,224.303622 62.9764057,243.171117 L84.805798,265.00051 L138.972104,210.830768 C116.76818,168.463947 113.923109,78.4662375 139.937642,25.0902293 Z"/><path fill="#02BAF2" d="M112.122605 373.013567C55.9152688 373.013567 10.1879659 327.286263 10.1879659 271.078928 10.1879659 267.433252 13.1395556 264.481662 16.7852323 264.481662 20.4274732 264.481662 23.3824987 267.433252 23.3824987 271.078928 23.3824987 320.008654 63.1894429 359.819034 112.122605 359.819034 115.768281 359.819034 118.719871 362.770623 118.719871 366.416301 118.719871 370.058541 115.764846 373.013567 112.122605 373.013567ZM366.416301 118.719871C362.770623 118.719871 359.819034 115.768281 359.819034 112.122605 359.819034 63.1894429 320.008654 23.3824987 271.078928 23.3824987 267.433252 23.3824987 264.481662 20.4274732 264.481662 16.7852323 264.481662 13.1395556 267.433252 10.1879659 271.078928 10.1879659 327.286263 10.1879659 373.013567 55.9152688 373.013567 112.122605 373.013567 115.764846 370.058541 118.719871 366.416301 118.719871Z"/><polygon fill="#F279B6" points="368.976 210.535 340.182 175.01 175.01 340.182 210.535 368.976"/><path fill="#C69" d="M175.009672,340.181858 L210.535265,368.976177 L222.822673,356.688769 C215.143043,342.30879 208.497672,327.485556 202.790348,312.404618 L175.009672,340.181858 Z"/><path fill="#02BAF2" d="M154.173306,195.629566 L79.1878139,270.615058 C69.9653844,279.837487 69.9653844,294.79129 79.1878139,304.013719 C88.4102417,313.232712 103.36061,313.232712 112.583038,304.013719 L166.337015,250.259742 C151.582504,234.986383 149.51055,213.899184 154.173306,195.629566 Z"/></g></svg>